# xmcd
#
# Track frame offsets: 
#        150
#        3862
#        24860
#        52107
#        72492
#        100350
#        115950
#        175842
#        208320
#        230325
#        263450
#        283017
#        300600
#
# Disc length: 4531 seconds
#
# Revision: 3
# Processed by: cddbd v1.5.2PL0 Copyright (c) Steve Scherf et al.
# Submitted via: ExactAudioCopy v1.3
#
DISCID=b011b10d
DTITLE=Iron Maiden - Live After Death [CD 1)
DYEAR=1985
DGENRE=Heavy Metal
TTITLE0=Intro: Churchill's Speech
TTITLE1=Aces High
TTITLE2=2 Minutes To Midnight
TTITLE3=The Trooper
TTITLE4=Revelations
TTITLE5=Flight Of Icarus
TTITLE6=Rime Of The Ancient Mariner
TTITLE7=Powerslave
TTITLE8=The Number Of The Beast
TTITLE9=Hallowed By Thy Name
TTITLE10=Iron Maiden
TTITLE11=Run To The Hills
TTITLE12=Running Free
EXTD=
EXTT0=
EXTT1=
EXTT2=
EXTT3=
EXTT4=
EXTT5=
EXTT6=
EXTT7=
EXTT8=
EXTT9=
EXTT10=
EXTT11=
EXTT12=
PLAYORDER=
